<svg xmlns="http://www.w3.org/2000/svg" xmlns:xlink="http://www.w3.org/1999/xlink" width="5000" height="1300" viewBox="0 0 5000 1300">
  <defs>
    <clipPath id="clip-path">
      <rect x="148.15" y="148.14" width="370.37" height="370.39" fill="none"/>
    </clipPath>
  </defs>
  <g id="Ebene_1" data-name="Ebene 1">
    <g>
      <g>
        <path d="M949,555.5H974.8V802.62H950.44L791.23,597.51V802.62H765.45V555.5h24.36L949,760.61Z" fill="#05164d"/>
        <path d="M1023.87,564.33h28.94V595h-28.94Zm2.11,69.54h24.72V802.62H1026Z" fill="#05164d"/>
        <path d="M1095.88,791V555.5h24.71V802.62h-13.06C1100.12,802.62,1095.88,798.38,1095.88,791Z" fill="#05164d"/>
        <path d="M1318.28,725.31H1182.37c1.76,37.42,19.77,59,57.19,59,32.48,0,44.48-12.35,49.78-31.06h25.77c-5.65,30.71-29.3,53.66-75.55,53.66-54.37,0-83-33.89-83-88.61,0-53.31,27.89-88.61,82.25-88.61,54,0,79.79,31.06,79.79,85.08A104.19,104.19,0,0,1,1318.28,725.31Zm-25.41-21.19c-2.83-37.06-20.13-51.89-54-51.89-34.95,0-52.25,19.06-56.13,51.89Z" fill="#05164d"/>
        <path d="M1379,802.62h-24.71V633.87h24v20.48c8.12-13.06,24.35-24.71,53-24.71,43.42,0,71,20.47,71,68.13V802.62H1477.5v-102c0-35-19.77-48.37-49.43-48.37S1379,665.65,1379,700.6Z" fill="#05164d"/>
        <path d="M1594.34,579.51v-24h192.4v24h-83.31V802.62h-25.77V579.51Z" fill="#05164d"/>
        <path d="M1846.05,653.64c-27.89,0-48.36,19.07-48.36,44.13V802.62H1773V633.87h24v23.3c8.12-14.82,25.77-27.53,54.37-27.53a52.72,52.72,0,0,1,7.06.35v24.36A112.28,112.28,0,0,0,1846.05,653.64Z" fill="#05164d"/>
        <path d="M1989.74,781.44c-13.07,16.59-35.66,25.42-61.08,25.42-42.71,0-59.66-23.66-59.66-51.19,0-30.36,17.3-47,55.07-51.19l45.19-4.94c15.18-1.77,20.12-7.42,20.12-20.48,0-15.53-11.65-26.83-43.77-26.83-29.3,0-40.6,10.24-42.72,26.83h-23.65c1.76-27.54,20.47-49.42,66.37-49.42,48.71,0,68.13,20.82,68.13,52.24V802.62h-24Zm-21.89-60.72-37.42,3.88c-24.72,2.47-36.72,12.36-36.72,30,0,18.71,11,29.65,39.89,29.65,29.66,0,55.78-15.18,55.78-45.89V716.13C1984.79,717.89,1976.67,719.66,1967.85,720.72Z" fill="#05164d"/>
        <path d="M2034.22,633.87h26.83L2120,774,2179,633.87h26.83l-73.43,168.75h-24.71Z" fill="#05164d"/>
        <path d="M2378.07,725.31H2242.15c1.77,37.42,19.77,59,57.2,59,32.47,0,44.48-12.35,49.77-31.06h25.77c-5.65,30.71-29.3,53.66-75.54,53.66-54.37,0-83-33.89-83-88.61,0-53.31,27.89-88.61,82.26-88.61,54,0,79.78,31.06,79.78,85.08C2378.42,718.6,2378.42,721.42,2378.07,725.31Zm-25.42-21.19c-2.82-37.06-20.12-51.89-54-51.89-34.95,0-52.25,19.06-56.13,51.89Z" fill="#05164d"/>
        <path d="M2413.72,791V555.5h24.72V802.62h-13.07C2418,802.62,2413.72,798.38,2413.72,791Z" fill="#05164d"/>
      </g>
      <g>
        <path d="M2228.25,273.72c-52.56,0-78,20.11-80.07,57.85H2200c.71-9.87,6.35-17.28,28.22-17.28,19.4,0,28.57,6.35,28.57,15.87,0,8.47-5.29,11.64-18.34,13l-33.87,3.53c-45.85,4.94-66.66,24-66.66,58.56,0,32.09,19.75,56.79,61.73,56.79,28.57,0,45.5-9.18,60.31-27.52v22.22h48.68V340C2308.67,291,2280.1,273.72,2228.25,273.72Zm29.63,113.94c0,19.4-18.35,33.86-46.57,33.86-13.75,0-21.87-6.35-21.87-18.34,0-9.17,5.65-16.93,23.64-19.4l30.69-4.24a89.2,89.2,0,0,0,14.11-2.82Z" fill="#05164d"/>
        <path d="M2056.82,345.33l-18.7-2.47c-15.16-2.12-19.4-6.35-19.4-14.11s6.7-13.76,24.34-13.76c18,0,23.63,6.35,25.4,16.58h51.85c-2.47-38.45-28.57-57.85-77.25-57.85-52.56,0-77.6,25-77.6,58.91,0,35.28,22.57,50.44,61.73,55.73l18.69,2.47c18.35,2.47,25.4,6.7,25.4,15.88,0,9.87-8.47,14.81-29.28,14.81-20.46,0-29.63-6.35-31-19.4h-52.55c1,35.63,22.57,60,83.59,60,56.09,0,82.54-22.23,82.54-59.62C2124.54,365.44,2102,351.33,2056.82,345.33Z" fill="#05164d"/>
        <path d="M1874.61,273.72c-28.57,0-43.73,12-51.14,25.76V279h-50.09V456.79h53.26V355.2c0-23.63,12-34.21,32.1-34.21,22.22,0,32.45,10.58,32.45,34.21V456.79h53.27v-104C1944.46,294.18,1920.82,273.72,1874.61,273.72Z" fill="#05164d"/>
        <path d="M1671,273.72c-52.56,0-78,20.11-80.07,57.85h51.85c.71-9.87,6.35-17.28,28.22-17.28,19.4,0,28.57,6.35,28.57,15.87,0,8.47-5.29,11.64-18.34,13l-33.86,3.53c-45.86,4.94-66.67,24-66.67,58.56,0,32.09,19.75,56.79,61.72,56.79,28.58,0,45.51-9.18,60.32-27.52v22.22h48.68V340C1751.45,291,1722.88,273.72,1671,273.72Zm29.63,113.94c0,19.4-18.34,33.86-46.56,33.86-13.76,0-21.87-6.35-21.87-18.34,0-9.17,5.64-16.93,23.63-19.4l30.69-4.24a89.2,89.2,0,0,0,14.11-2.82Z" fill="#05164d"/>
        <path d="M1496.07,273.72c-25,0-39.51,9.53-48.68,22.58V210.23h-53.61V456.79H1447V355.2c0-23.63,12-34.21,32.1-34.21,22.22,0,32.45,10.58,32.45,34.21V456.79h53.26v-104C1564.85,294.18,1541.22,273.72,1496.07,273.72Z" fill="#05164d"/>
        <path d="M1337.58,227.16h-53.26V279h-26.81V322.4h26.81v75.13c0,43,25.75,62.44,68.43,62.44a129.47,129.47,0,0,0,25.39-2.82V414.47s-8.81,1-15.16,1c-15.52,0-25.4-4.93-25.4-24V322.4h40.56V279h-40.56Z" fill="#05164d"/>
        <path d="M1151.34,272.31V279h-26.81V322.4h26.81V456.79h53.26V322.4h39.16V279H1204.6V272c0-15.52,8.82-21.16,25.4-21.16,6.35,0,13.76.7,13.76.7v-43a106.3,106.3,0,0,0-22.58-2.12C1178.5,206.35,1151.34,229.28,1151.34,272.31Z" fill="#05164d"/>
        <path d="M1057.15,380.6c0,23.64-12,34.22-31.39,34.22-21.51,0-31.75-10.58-31.75-34.22V279H940.75V383.07c0,58.56,23.64,79,69.14,79,27.86,0,43-12,50.44-25.76v20.46h50.09V279h-53.27Z" fill="#05164d"/>
        <polygon points="822.58 209.88 765.44 209.88 765.44 456.79 928.76 456.79 928.76 407.06 822.58 407.06 822.58 209.88" fill="#05164d"/>
        <path d="M2531.09,204.58c76.54,0,111.46,36.69,119.58,89.25h-59.26c-7.06-25.05-24-38.45-60.32-38.45-45.15,0-64.56,28.92-64.56,77.95s19.41,78,64.56,78c36.33,0,53.26-13.4,60.32-38.45h59.26c-8.12,52.56-43,89.24-119.58,89.24-89.25,0-123.82-54.67-123.82-128.75S2441.84,204.58,2531.09,204.58Z" fill="#05164d"/>
        <path d="M2721.21,255.38H2668v-45.5h53.26Zm0,201.41H2668V279h53.26Z" fill="#05164d"/>
        <path d="M2817.15,322.4v69.14c0,19,9.88,24,25.4,24,6.35,0,15.17-1.06,15.17-1.06v42.69a129.64,129.64,0,0,1-25.4,2.82c-42.68,0-68.43-19.4-68.43-62.44V322.4h-26.81V279h26.81V227.16h53.26V279h40.57V322.4Z" fill="#05164d"/>
        <path d="M3061.25,279,2959.31,518.88h-56.44L2934.61,449l-71.25-170h58.91l38.8,106.88L3002.34,279Z" fill="#05164d"/>
        <path d="M3258.42,204.58c76.55,0,111.47,36.69,119.58,89.25h-59.26c-7.06-25.05-24-38.45-60.32-38.45-45.15,0-64.55,28.92-64.55,77.95s19.4,78,64.55,78c36.33,0,53.26-13.4,60.32-38.45H3378c-8.11,52.56-43,89.24-119.58,89.24-89.24,0-123.81-54.67-123.81-128.75S3169.18,204.58,3258.42,204.58Z" fill="#05164d"/>
        <path d="M3569.89,382.37h-127c2.47,26.8,13.76,37,40.21,37,20.11,0,28.22-5.64,31.4-17.28h52.56c-3.18,34.57-31.05,60-84,60-67,0-93.12-37.74-93.12-94.18,0-47.62,21.52-94.18,90.3-94.18,64.55,0,90.3,37.39,90.3,93.83A110.19,110.19,0,0,1,3569.89,382.37Zm-53.62-36.69c-2.11-18.34-9.88-30.69-36-30.69-22.93,0-33.16,9.53-36.68,30.69Z" fill="#05164d"/>
        <path d="M3687.7,273.72c46.21,0,69.84,20.46,69.84,79V456.79h-53.26V355.2c0-23.63-10.23-34.21-32.45-34.21-20.11,0-32.1,10.58-32.1,34.21V456.79h-53.27V279h50.09v20.46C3644,285.71,3659.13,273.72,3687.7,273.72Z" fill="#05164d"/>
        <path d="M3849.61,322.4v69.14c0,19,9.88,24,25.4,24,6.35,0,15.17-1.06,15.17-1.06v42.69a129.64,129.64,0,0,1-25.4,2.82c-42.68,0-68.43-19.4-68.43-62.44V322.4h-26.81V279h26.81V227.16h53.26V279h40.57V322.4Z" fill="#05164d"/>
        <path d="M4077.83,382.37h-127c2.46,26.8,13.75,37,40.21,37,20.1,0,28.22-5.64,31.39-17.28H4075c-3.17,34.57-31,60-84,60-67,0-93.13-37.74-93.13-94.18,0-47.62,21.52-94.18,90.31-94.18,64.55,0,90.3,37.39,90.3,93.83A108.65,108.65,0,0,1,4077.83,382.37Zm-53.61-36.69c-2.12-18.34-9.88-30.69-36-30.69-22.93,0-33.16,9.53-36.69,30.69Z" fill="#05164d"/>
        <path d="M4180.83,324.16c-19.05,0-33.16,9.53-33.16,32.46V456.79h-53.26V279h50.09v20.46h.35c7-13.76,21.87-25.75,48.68-25.75a91,91,0,0,1,9.87.71v51.14A173.56,173.56,0,0,0,4180.83,324.16Z" fill="#05164d"/>
      </g>
      <g id="Kranich_standard_blue_Pantone" data-name="Kranich standard blue Pantone">
        <g clip-path="url(#clip-path)">
          <g clip-path="url(#clip-path)">
            <path d="M401.85,287.78c30.74,0,59.26,2.59,85.93,7.78l-8.89,8.52a402.34,402.34,0,0,0-75.18-6.67h-7l-4.06,7.78h6.29a433.25,433.25,0,0,1,72.59,5.92L463,319.26c-18.89-3.33-39.63-4.81-67.4-4.81h-7.78L383,322.6c6.67-.38,11.86-.38,15.93-.38,19.63,0,41.1,1.49,56.67,4.08L447,334.45c-14.82-2.22-27.78-3-47.41-3-7.4,0-18.51.37-23.7.74l-6.67,8.15c9.26-.75,18.15-1.12,28.15-1.12a353.76,353.76,0,0,1,41.85,2.59l-8.89,8.52c-10.37-1.11-21.48-1.85-29.26-1.85-29.26,0-50.37,4.82-67.41,15.19,20.38,21.85,55.56,34.82,94.82,34.82h3.7l-15.55,14.81C357.41,401.49,314.82,383,267,348.9c-36.67-26.3-51.11-35.2-85.92-51.12L180.75,287l25.93,10.74,11.11-8.52,72.59,33-7.78,5.93L246.67,312.6,241.86,317l15.55,8.89c16.67,8.89,29.64,13.33,40,13.7,26.67.38,50.37-18.15,65.18-50,12.6-1.11,25.93-1.85,39.26-1.85" fill="#05164d"/>
            <path d="M333.34,148.14a185,185,0,0,0-185.19,185.2c0,102.22,83,185.19,185.19,185.19a185.2,185.2,0,0,0,0-370.39m0,357.06c-94.44,0-171.85-77.41-171.85-171.86,0-94.83,77.41-171.86,171.85-171.86,94.81,0,171.85,77,171.85,171.86,0,94.45-77,171.86-171.85,171.86" fill="#05164d"/>
          </g>
        </g>
      </g>
    </g>
  </g>
</svg>
